<?xml version="1.0" encoding="utf-8"?>
<!-- Generator: Adobe Illustrator 25.0.0, SVG Export Plug-In . SVG Version: 6.00 Build 0)  -->
<svg version="1.1" id="Layer_1" xmlns="http://www.w3.org/2000/svg" xmlns:xlink="http://www.w3.org/1999/xlink" x="0px" y="0px"
	 viewBox="0 0 512 512" style="enable-background:new 0 0 512 512;" xml:space="preserve">
<style type="text/css">
	.st0{fill:#494949;}
</style>
<g>
	<path class="st0" d="M304.29,118.25c21.95-48.59,72.34-83.3,125.72-85.61c16.81-0.48,34.12,2.77,48.58,11.69
		c11.72,7.11,20.99,18.08,26.27,30.71c4.92,11.09,6.59,23.28,7.14,35.31v3.38c-0.39,10.19-1.4,20.37-3.41,30.37
		c-7.58,39.48-22.86,77.15-42.26,112.25c-6.78,11.21-12.97,22.8-20.48,33.57c-15.3,23.54-32.51,45.8-50.81,67.08
		c-26.77,30.83-55.92,59.6-87.39,85.62c-13.46,10.74-26.8,21.89-41.98,30.14c-10.66,5.43-22.95,7.81-34.84,5.99
		c-15.58-2.38-29.6-10.93-40.87-21.68c-10.9-10.22-19.47-22.72-25.82-36.2c-6.48-14.83-11.05-30.37-16.26-45.66
		c-10.07-31.5-19.62-63.16-29.49-94.72c-10-32.04-19.62-64.23-31.29-95.71c-2.59-7.02-5.11-14.24-9.48-20.38
		c-4.55-5.3-12.36-5.19-18.58-3.58c-14.13,3.9-26.64,12.04-38.35,20.63C13.73,172.43,6.9,163.31,0,154.25l0,0
		c19.18-22.16,39.82-43.06,61.74-62.52C85.13,71.56,110.2,52.3,139.31,41.2c10.78-3.59,22.34-6.79,33.73-4.17
		c11.38,2.3,20.81,10.18,27.27,19.56c4.5,6.86,8.26,14.18,11.22,21.84c8.03,20.69,12.2,42.6,16,64.39
		c4.84,25.65,7.99,51.66,14.82,76.9c5.02,18.76,9.54,37.68,15.48,56.19c3.82,11.36,7.62,22.95,14.37,32.98
		c1.8,2.44,3.98,4.79,6.86,5.93c2.86,1.16,6.07,0.3,8.69-1.09c9.53-5.53,16.54-14.25,23.41-22.67
		c7.84-10.28,14.98-21.07,21.81-32.04c8.79-14.75,17.66-29.51,24.92-45.09c4.85-11.66,7.92-24.33,6.93-37.01
		c-0.84-11.08-5.26-22.59-14.5-29.29c-6.62-4.98-15.16-6.91-23.33-6.29c-11.92,0.53-22.91,5.77-33.19,11.43
		C295.99,140.91,299.31,129.25,304.29,118.25z"/>
</g>
</svg>
