<?xml version="1.0" encoding="utf-8"?>
<!-- Generator: Adobe Illustrator 25.0.0, SVG Export Plug-In . SVG Version: 6.00 Build 0)  -->
<svg version="1.1" id="Layer_1" xmlns="http://www.w3.org/2000/svg" xmlns:xlink="http://www.w3.org/1999/xlink" x="0px" y="0px"
	 viewBox="0 0 512 512" style="enable-background:new 0 0 512 512;" xml:space="preserve">
<style type="text/css">
	.st0{fill:#494949;}
</style>
<g>
	<path class="st0" d="M21.3,0h2.29c3.3,0.34,6.53,1.27,9.46,2.84C187.51,82.06,342,161.22,496.44,240.48
		c7.94,3.84,11.3,14.1,8.05,22.13c-1.61,4.32-5.16,7.66-9.3,9.58c-153.38,78.64-306.75,157.3-460.13,235.93
		c-3.37,1.94-7.05,3.31-10.91,3.88h-3.19c-4.5-0.48-9-2.56-11.59-6.38c-3.61-5.1-3.57-11.81-2.21-17.67
		c14.2-63.3,28.38-126.59,42.63-189.88c80.96-13.95,161.9-28,242.84-42.05c-80.93-14.12-161.88-28.11-242.84-42.09
		C35.55,150.66,21.37,87.37,7.17,24.09C5.85,18.43,5.74,12.04,8.96,6.97C11.56,2.73,16.42,0.32,21.3,0z"/>
</g>
</svg>
