<?xml version="1.0" encoding="utf-8"?>
<!-- Generator: Adobe Illustrator 25.0.0, SVG Export Plug-In . SVG Version: 6.00 Build 0)  -->
<svg version="1.1" id="Layer_1" xmlns="http://www.w3.org/2000/svg" xmlns:xlink="http://www.w3.org/1999/xlink" x="0px" y="0px"
	 viewBox="0 0 512 512" style="enable-background:new 0 0 512 512;" xml:space="preserve">
<style type="text/css">
	.st0{fill:#494949;}
</style>
<g>
	<path class="st0" d="M67.78,114.38c4.23-1.57,8.7-2.52,13.22-2.38c116.67,0,233.34,0,350.01,0c4.74-0.13,9.44,0.86,13.81,2.69
		c-58.74,49.02-117.54,97.98-176.3,146.98c-6.29,6.42-17.36,7.09-24,0.83c-57.46-47.88-114.89-95.79-172.35-143.66
		C70.62,117.45,68.59,116.4,67.78,114.38z"/>
	<path class="st0" d="M48,187.03c0.14-14.33-0.28-28.68,0.21-43c58.06,48.56,116.36,96.84,174.53,145.26
		c15.07,12.93,37.74,15.84,55.56,7.08c4.63-2.17,8.81-5.18,12.71-8.47c57.64-47.98,115.34-95.89,172.96-143.89
		c0.07,73.68,0,147.35,0.04,221.03c0.15,5.44-0.5,11.01-2.81,16c-4.92,11.34-16.87,19.1-29.25,18.94
		c-116.97,0.04-233.95,0-350.92,0.02c-6.56,0.12-13.17-1.64-18.63-5.31c-8.86-5.76-14.47-16.1-14.38-26.68
		C47.98,307.69,48.01,247.36,48,187.03z"/>
</g>
</svg>
